<svg width="800" height="800" viewBox="0 0 800 800" fill="none" xmlns="http://www.w3.org/2000/svg">
<rect width="800" height="800" fill="#4B5563"/>
<rect width="800" height="800" fill="#4B5563"/>
<path fill-rule="evenodd" clip-rule="evenodd" d="M363.3 357C360.038 357 356.909 358.296 354.603 360.603C352.296 362.909 351 366.038 351 369.3V430.8C351 434.062 352.296 437.191 354.603 439.497C356.909 441.804 360.038 443.1 363.3 443.1H437.1C440.362 443.1 443.491 441.804 445.797 439.497C448.104 437.191 449.4 434.062 449.4 430.8V369.3C449.4 366.038 448.104 362.909 445.797 360.603C443.491 358.296 440.362 357 437.1 357H363.3ZM437.1 430.8H363.3L387.9 381.6L406.35 418.5L418.65 393.9L437.1 430.8Z" fill="#F9FAFB"/>
</svg>
