<svg width="1660" height="1100" viewBox="0 0 1660 1100" fill="none" xmlns="http://www.w3.org/2000/svg">
<rect width="1660" height="1100" fill="#4B5563"/>
<rect width="1660" height="1100" fill="#4B5563"/>
<path fill-rule="evenodd" clip-rule="evenodd" d="M793.3 507C790.038 507 786.909 508.288 784.603 510.58C782.296 512.872 781 515.981 781 519.222V580.333C781 583.575 782.296 586.684 784.603 588.976C786.909 591.268 790.038 592.556 793.3 592.556H867.1C870.362 592.556 873.491 591.268 875.797 588.976C878.104 586.684 879.4 583.575 879.4 580.333V519.222C879.4 515.981 878.104 512.872 875.797 510.58C873.491 508.288 870.362 507 867.1 507H793.3ZM867.1 580.333H793.3L817.9 531.444L836.35 568.111L848.65 543.667L867.1 580.333Z" fill="#F9FAFB"/>
</svg>
