 <svg  viewBox="0 0 540 133" fill="none" xmlns="http://www.w3.org/2000/svg">
  <rect y="45.9463" width="97.2206" height="97.2206" rx="20" transform="rotate(-27.5364 0 45.9463)" fill="#48BB78"/>
  <path d="M70.8571 92.627C70.8575 93.3726 71.0476 94.1056 71.4094 94.7566C71.7711 95.4076 72.2926 95.955 72.9241 96.3469C73.5557 96.7387 74.2766 96.962 75.0182 96.9956C75.7599 97.0291 76.4978 96.8718 77.1619 96.5386L94.5905 87.788C95.3141 87.4249 95.9228 86.8666 96.3484 86.1758C96.7739 85.485 96.9996 84.6888 97 83.8765V58.6573C96.9996 57.9118 96.8095 57.1787 96.4478 56.5277C96.086 55.8767 95.5646 55.3293 94.933 54.9374C94.3014 54.5456 93.5806 54.3223 92.8389 54.2888C92.0972 54.2552 91.3593 54.4125 90.6952 54.7458L73.2666 63.4964C72.543 63.8595 71.9343 64.4177 71.5088 65.1085C71.0832 65.7994 70.8576 66.5955 70.8571 67.4079V92.627ZM89.2051 45.7064C89.9278 45.3427 90.5356 44.7841 90.9603 44.0934C91.385 43.4026 91.6099 42.6067 91.6099 41.7949C91.6099 40.9831 91.385 40.1872 90.9603 39.4964C90.5356 38.8057 89.9278 38.2471 89.2051 37.8834L68.4476 27.4614C67.8429 27.158 67.1761 27 66.5 27C65.8239 27 65.1571 27.158 64.5524 27.4614L43.7949 37.8834C43.0722 38.2471 42.4644 38.8057 42.0397 39.4964C41.615 40.1872 41.3901 40.9831 41.3901 41.7949C41.3901 42.6067 41.615 43.4026 42.0397 44.0934C42.4644 44.7841 43.0722 45.3427 43.7949 45.7064L64.5524 56.1284C65.1571 56.4318 65.8239 56.5898 66.5 56.5898C67.1761 56.5898 67.8429 56.4318 68.4476 56.1284L89.2051 45.7064V45.7064ZM42.3048 54.7458C41.6407 54.4125 40.9028 54.2552 40.1611 54.2888C39.4194 54.3223 38.6986 54.5456 38.067 54.9374C37.4354 55.3293 36.914 55.8767 36.5522 56.5277C36.1905 57.1787 36.0004 57.9118 36 58.6573V83.8765C36.0004 84.6888 36.2261 85.485 36.6516 86.1758C37.0772 86.8666 37.6859 87.4249 38.4095 87.788L55.8381 96.5386C56.5022 96.8718 57.2401 97.0291 57.9818 96.9956C58.7234 96.962 59.4443 96.7387 60.0759 96.3469C60.7074 95.955 61.2289 95.4076 61.5906 94.7566C61.9524 94.1056 62.1425 93.3726 62.1429 92.627V67.4079C62.1424 66.5955 61.9168 65.7994 61.4912 65.1085C61.0657 64.4177 60.457 63.8595 59.7334 63.4964L42.3048 54.7458V54.7458Z" fill="url(#paint0_linear)"/>
  <path d="M187.817 92.63L187.439 95.978H187.574L188.627 92.576L193.973 82.1H196.349L197.132 92.63L196.781 95.978H196.916L197.996 92.576L202.424 82.1H206.204L197.213 101.135H194.756L193.757 90.632L193.973 87.743H193.811L192.785 90.659L187.412 101.135H184.955L184.037 82.1H187.736L187.817 92.63ZM206.991 87.5H210.312L207.45 101H204.129L206.991 87.5ZM207.504 83.666C207.504 83.072 207.693 82.613 208.071 82.289C208.467 81.965 208.962 81.803 209.556 81.803C210.132 81.803 210.618 81.965 211.014 82.289C211.428 82.613 211.635 83.072 211.635 83.666C211.635 84.242 211.428 84.701 211.014 85.043C210.618 85.367 210.132 85.529 209.556 85.529C208.962 85.529 208.467 85.367 208.071 85.043C207.693 84.701 207.504 84.242 207.504 83.666ZM216.114 87.5L216.141 89.876H216.249C216.645 89.156 217.122 88.544 217.68 88.04C218.256 87.536 218.976 87.284 219.84 87.284C220.218 87.284 220.668 87.356 221.19 87.5L220.353 90.389C220.173 90.335 220.002 90.29 219.84 90.254C219.678 90.218 219.507 90.2 219.327 90.2C218.589 90.2 217.905 90.443 217.275 90.929C216.663 91.397 216.195 91.946 215.871 92.576L214.116 101H210.795L213.657 87.5H216.114ZM230.417 99.704C229.859 100.172 229.139 100.568 228.257 100.892C227.375 101.216 226.349 101.378 225.179 101.378C223.721 101.378 222.569 100.955 221.723 100.109C220.895 99.245 220.481 98.048 220.481 96.518C220.481 95.078 220.706 93.782 221.156 92.63C221.606 91.46 222.191 90.47 222.911 89.66C223.649 88.85 224.477 88.229 225.395 87.797C226.313 87.347 227.231 87.122 228.149 87.122C228.887 87.122 229.517 87.221 230.039 87.419C230.579 87.599 231.02 87.86 231.362 88.202C231.704 88.526 231.956 88.904 232.118 89.336C232.28 89.768 232.361 90.227 232.361 90.713C232.361 91.451 232.172 92.099 231.794 92.657C231.416 93.215 230.885 93.683 230.201 94.061C229.535 94.421 228.725 94.7 227.771 94.898C226.817 95.078 225.773 95.168 224.639 95.168C224.495 95.168 224.36 95.168 224.234 95.168C224.108 95.15 223.973 95.141 223.829 95.141C223.793 95.357 223.766 95.555 223.748 95.735C223.73 95.897 223.721 96.05 223.721 96.194C223.721 97.004 223.928 97.607 224.342 98.003C224.774 98.399 225.377 98.597 226.151 98.597C226.943 98.597 227.654 98.48 228.284 98.246C228.914 98.012 229.391 97.778 229.715 97.544L230.417 99.704ZM224.315 93.035C224.819 93.035 225.35 93.017 225.908 92.981C226.484 92.945 227.015 92.864 227.501 92.738C227.987 92.594 228.392 92.396 228.716 92.144C229.04 91.874 229.202 91.514 229.202 91.064C229.202 90.794 229.103 90.524 228.905 90.254C228.707 89.966 228.293 89.822 227.663 89.822C226.871 89.822 226.178 90.128 225.584 90.74C225.008 91.352 224.585 92.117 224.315 93.035ZM238.783 90.281L236.785 101.918C236.677 102.584 236.524 103.196 236.326 103.754C236.128 104.33 235.849 104.825 235.489 105.239C235.147 105.671 234.706 106.004 234.166 106.238C233.626 106.49 232.96 106.616 232.168 106.616C231.52 106.616 230.89 106.562 230.278 106.454C229.648 106.364 229.108 106.166 228.658 105.86L229.576 103.403C229.882 103.529 230.188 103.61 230.494 103.646C230.8 103.682 231.187 103.7 231.655 103.7C232.231 103.7 232.672 103.466 232.978 102.998C233.302 102.548 233.545 101.81 233.707 100.784L235.408 90.281H233.518L234.112 87.5H235.84L236.191 85.691C236.317 85.025 236.479 84.449 236.677 83.963C236.875 83.459 237.136 83.045 237.46 82.721C237.802 82.379 238.207 82.127 238.675 81.965C239.161 81.803 239.755 81.722 240.457 81.722C240.745 81.722 241.069 81.74 241.429 81.776C241.807 81.794 242.176 81.839 242.536 81.911C242.896 81.965 243.247 82.037 243.589 82.127C243.931 82.217 244.237 82.325 244.507 82.451L243.724 84.908C243.31 84.746 242.887 84.638 242.455 84.584C242.023 84.53 241.6 84.503 241.186 84.503C240.61 84.503 240.187 84.674 239.917 85.016C239.665 85.358 239.485 85.889 239.377 86.609L239.215 87.5H241.915L241.375 90.281H238.783ZM245.882 87.5L245.909 89.876H246.017C246.413 89.156 246.89 88.544 247.448 88.04C248.024 87.536 248.744 87.284 249.608 87.284C249.986 87.284 250.436 87.356 250.958 87.5L250.121 90.389C249.941 90.335 249.77 90.29 249.608 90.254C249.446 90.218 249.275 90.2 249.095 90.2C248.357 90.2 247.673 90.443 247.043 90.929C246.431 91.397 245.963 91.946 245.639 92.576L243.884 101H240.563L243.425 87.5H245.882ZM261.32 95.6C261.176 96.284 261.068 96.977 260.996 97.679C260.942 98.381 260.915 99.047 260.915 99.677C260.915 99.929 260.915 100.172 260.915 100.406C260.933 100.622 260.951 100.829 260.969 101.027H258.512L258.134 98.705H258.026C257.828 99.029 257.567 99.353 257.243 99.677C256.937 99.983 256.595 100.271 256.217 100.541C255.839 100.793 255.434 100.991 255.002 101.135C254.588 101.297 254.156 101.378 253.706 101.378C252.518 101.378 251.636 100.991 251.06 100.217C250.502 99.443 250.223 98.408 250.223 97.112C250.223 95.798 250.385 94.538 250.709 93.332C251.051 92.126 251.573 91.064 252.275 90.146C252.977 89.228 253.859 88.499 254.921 87.959C256.001 87.401 257.279 87.122 258.755 87.122C259.385 87.122 260.069 87.185 260.807 87.311C261.563 87.419 262.292 87.572 262.994 87.77L261.32 95.6ZM254.975 98.597C255.299 98.597 255.605 98.534 255.893 98.408C256.181 98.264 256.442 98.084 256.676 97.868C256.928 97.652 257.144 97.418 257.324 97.166C257.522 96.914 257.693 96.68 257.837 96.464L259.187 90.173C258.989 90.083 258.755 90.02 258.485 89.984C258.233 89.93 257.981 89.903 257.729 89.903C257.081 89.903 256.505 90.101 256.001 90.497C255.497 90.875 255.065 91.379 254.705 92.009C254.363 92.621 254.102 93.323 253.922 94.115C253.742 94.889 253.652 95.672 253.652 96.464C253.652 97.04 253.742 97.544 253.922 97.976C254.12 98.39 254.471 98.597 254.975 98.597ZM270.552 101L272.091 93.656C272.199 93.152 272.28 92.711 272.334 92.333C272.406 91.937 272.442 91.586 272.442 91.28C272.442 90.452 272.127 90.038 271.497 90.038C271.191 90.038 270.885 90.119 270.579 90.281C270.273 90.443 269.985 90.65 269.715 90.902C269.463 91.154 269.22 91.433 268.986 91.739C268.77 92.027 268.59 92.306 268.446 92.576L266.718 101H263.397L266.259 87.5H268.851L268.689 89.876H268.797C269.067 89.588 269.355 89.282 269.661 88.958C269.985 88.634 270.345 88.337 270.741 88.067C271.137 87.797 271.578 87.572 272.064 87.392C272.55 87.212 273.081 87.122 273.657 87.122C274.377 87.122 274.917 87.383 275.277 87.905C275.655 88.427 275.826 89.12 275.79 89.984C276.06 89.642 276.366 89.3 276.708 88.958C277.068 88.616 277.446 88.31 277.842 88.04C278.256 87.77 278.688 87.554 279.138 87.392C279.606 87.212 280.083 87.122 280.569 87.122C281.397 87.122 282.027 87.32 282.459 87.716C282.909 88.094 283.134 88.814 283.134 89.876C283.134 90.65 282.999 91.658 282.729 92.9L281.028 101H277.707L279.3 93.413C279.39 92.999 279.462 92.612 279.516 92.252C279.57 91.892 279.597 91.577 279.597 91.307C279.597 90.893 279.516 90.578 279.354 90.362C279.21 90.146 278.958 90.038 278.598 90.038C278.31 90.038 278.013 90.128 277.707 90.308C277.419 90.47 277.14 90.686 276.87 90.956C276.6 91.208 276.348 91.487 276.114 91.793C275.898 92.099 275.727 92.387 275.601 92.657L273.873 101H270.552ZM287.2 87.5H290.521L287.659 101H284.338L287.2 87.5ZM287.713 83.666C287.713 83.072 287.902 82.613 288.28 82.289C288.676 81.965 289.171 81.803 289.765 81.803C290.341 81.803 290.827 81.965 291.223 82.289C291.637 82.613 291.844 83.072 291.844 83.666C291.844 84.242 291.637 84.701 291.223 85.043C290.827 85.367 290.341 85.529 289.765 85.529C289.171 85.529 288.676 85.367 288.28 85.043C287.902 84.701 287.713 84.242 287.713 83.666ZM298.591 101L300.373 92.63C300.481 92.126 300.535 91.685 300.535 91.307C300.535 90.911 300.454 90.605 300.292 90.389C300.13 90.155 299.833 90.038 299.401 90.038C299.077 90.038 298.753 90.119 298.429 90.281C298.105 90.443 297.799 90.659 297.511 90.929C297.223 91.199 296.953 91.505 296.701 91.847C296.449 92.171 296.233 92.504 296.053 92.846L294.325 101H291.004L293.866 87.5H296.377L296.242 89.876H296.35C296.584 89.588 296.854 89.282 297.16 88.958C297.484 88.634 297.853 88.337 298.267 88.067C298.681 87.797 299.14 87.572 299.644 87.392C300.166 87.212 300.751 87.122 301.399 87.122C302.209 87.122 302.857 87.347 303.343 87.797C303.829 88.229 304.072 88.958 304.072 89.984C304.072 90.254 304.054 90.542 304.018 90.848C304 91.154 303.946 91.487 303.856 91.847L301.912 101H298.591ZM315.587 101C315.353 102.062 315.038 102.953 314.642 103.673C314.246 104.411 313.769 105.005 313.211 105.455C312.671 105.905 312.041 106.229 311.321 106.427C310.619 106.625 309.836 106.724 308.972 106.724C308.342 106.724 307.775 106.679 307.271 106.589C306.785 106.499 306.353 106.391 305.975 106.265C305.597 106.139 305.264 106.004 304.976 105.86C304.706 105.734 304.49 105.617 304.328 105.509L305.57 103.052C305.732 103.124 305.921 103.205 306.137 103.295C306.353 103.403 306.596 103.502 306.866 103.592C307.154 103.7 307.478 103.781 307.838 103.835C308.216 103.907 308.648 103.943 309.134 103.943C310.034 103.943 310.745 103.664 311.267 103.106C311.807 102.548 312.194 101.783 312.428 100.811L312.941 98.705H312.833C312.419 99.353 311.852 99.938 311.132 100.46C310.43 100.964 309.629 101.216 308.729 101.216C307.757 101.216 306.965 100.856 306.353 100.136C305.759 99.398 305.462 98.417 305.462 97.193C305.462 95.807 305.66 94.511 306.056 93.305C306.452 92.081 307.001 91.019 307.703 90.119C308.423 89.201 309.269 88.481 310.241 87.959C311.213 87.437 312.284 87.176 313.454 87.176C314.552 87.176 315.506 87.275 316.316 87.473C317.144 87.653 317.81 87.86 318.314 88.094L315.587 101ZM314.615 90.227C314.417 90.119 314.165 90.047 313.859 90.011C313.553 89.975 313.247 89.957 312.941 89.957C312.365 89.957 311.825 90.128 311.321 90.47C310.835 90.812 310.412 91.28 310.052 91.874C309.692 92.468 309.404 93.17 309.188 93.98C308.99 94.772 308.891 95.627 308.891 96.545C308.891 97.121 309.008 97.58 309.242 97.922C309.494 98.264 309.818 98.435 310.214 98.435C310.52 98.435 310.835 98.345 311.159 98.165C311.483 97.967 311.789 97.724 312.077 97.436C312.383 97.148 312.653 96.833 312.887 96.491C313.121 96.131 313.31 95.798 313.454 95.492L314.615 90.227ZM331.107 95.411H330.027L328.866 101H325.545L329.541 82.1H332.862L330.486 93.251L331.485 92.9L335.292 87.5H338.991L334.968 92.927L333.348 93.953L334.563 94.979L336.615 101H333.051L331.107 95.411ZM341.2 87.5H344.521L341.659 101H338.338L341.2 87.5ZM341.713 83.666C341.713 83.072 341.902 82.613 342.28 82.289C342.676 81.965 343.171 81.803 343.765 81.803C344.341 81.803 344.827 81.965 345.223 82.289C345.637 82.613 345.844 83.072 345.844 83.666C345.844 84.242 345.637 84.701 345.223 85.043C344.827 85.367 344.341 85.529 343.765 85.529C343.171 85.529 342.676 85.367 342.28 85.043C341.902 84.701 341.713 84.242 341.713 83.666ZM346.246 87.5H348.001L348.541 84.962L352.078 83.963L351.322 87.5H354.481L353.86 90.281H350.728L349.405 96.383C349.297 96.869 349.243 97.265 349.243 97.571C349.243 97.967 349.333 98.237 349.513 98.381C349.693 98.525 349.963 98.597 350.323 98.597C350.665 98.597 350.971 98.561 351.241 98.489C351.529 98.417 351.826 98.3 352.132 98.138V100.622C351.934 100.73 351.691 100.838 351.403 100.946C351.133 101.036 350.836 101.108 350.512 101.162C350.188 101.234 349.855 101.288 349.513 101.324C349.171 101.36 348.856 101.378 348.568 101.378C347.65 101.378 346.939 101.171 346.435 100.757C345.949 100.325 345.706 99.677 345.706 98.813C345.706 98.633 345.715 98.444 345.733 98.246C345.769 98.048 345.805 97.841 345.841 97.625L347.407 90.281H345.598L346.246 87.5ZM366.637 90.281L364.639 101.918C364.531 102.584 364.378 103.196 364.18 103.754C363.982 104.33 363.703 104.825 363.343 105.239C363.001 105.671 362.56 106.004 362.02 106.238C361.48 106.49 360.814 106.616 360.022 106.616C359.374 106.616 358.744 106.562 358.132 106.454C357.502 106.364 356.962 106.166 356.512 105.86L357.43 103.403C357.736 103.529 358.042 103.61 358.348 103.646C358.654 103.682 359.041 103.7 359.509 103.7C360.085 103.7 360.526 103.466 360.832 102.998C361.156 102.548 361.399 101.81 361.561 100.784L363.262 90.281H361.372L361.966 87.5H363.694L364.045 85.691C364.171 85.025 364.333 84.449 364.531 83.963C364.729 83.459 364.99 83.045 365.314 82.721C365.656 82.379 366.061 82.127 366.529 81.965C367.015 81.803 367.609 81.722 368.311 81.722C368.599 81.722 368.923 81.74 369.283 81.776C369.661 81.794 370.03 81.839 370.39 81.911C370.75 81.965 371.101 82.037 371.443 82.127C371.785 82.217 372.091 82.325 372.361 82.451L371.578 84.908C371.164 84.746 370.741 84.638 370.309 84.584C369.877 84.53 369.454 84.503 369.04 84.503C368.464 84.503 368.041 84.674 367.771 85.016C367.519 85.358 367.339 85.889 367.231 86.609L367.069 87.5H369.769L369.229 90.281H366.637ZM369.113 96.626C369.113 95.204 369.311 93.908 369.707 92.738C370.121 91.568 370.661 90.569 371.327 89.741C372.011 88.913 372.794 88.274 373.676 87.824C374.576 87.356 375.512 87.122 376.484 87.122C377.348 87.122 378.077 87.257 378.671 87.527C379.265 87.797 379.742 88.157 380.102 88.607C380.48 89.057 380.75 89.57 380.912 90.146C381.074 90.722 381.155 91.316 381.155 91.928C381.155 93.332 380.957 94.619 380.561 95.789C380.165 96.941 379.634 97.931 378.968 98.759C378.302 99.587 377.528 100.235 376.646 100.703C375.764 101.153 374.837 101.378 373.865 101.378C373.019 101.378 372.299 101.243 371.705 100.973C371.111 100.685 370.616 100.316 370.22 99.866C369.842 99.416 369.563 98.912 369.383 98.354C369.203 97.778 369.113 97.202 369.113 96.626ZM372.542 96.167C372.542 97.787 373.127 98.597 374.297 98.597C374.729 98.597 375.152 98.408 375.566 98.03C375.98 97.652 376.349 97.157 376.673 96.545C376.997 95.933 377.249 95.24 377.429 94.466C377.627 93.692 377.726 92.918 377.726 92.144C377.726 91.424 377.6 90.875 377.348 90.497C377.114 90.101 376.664 89.903 375.998 89.903C375.566 89.903 375.143 90.083 374.729 90.443C374.315 90.803 373.946 91.28 373.622 91.874C373.298 92.45 373.037 93.116 372.839 93.872C372.641 94.628 372.542 95.393 372.542 96.167ZM387.395 87.5L387.422 89.876H387.53C387.926 89.156 388.403 88.544 388.961 88.04C389.537 87.536 390.257 87.284 391.121 87.284C391.499 87.284 391.949 87.356 392.471 87.5L391.634 90.389C391.454 90.335 391.283 90.29 391.121 90.254C390.959 90.218 390.788 90.2 390.608 90.2C389.87 90.2 389.186 90.443 388.556 90.929C387.944 91.397 387.476 91.946 387.152 92.576L385.397 101H382.076L384.938 87.5H387.395ZM413.276 85.394H408.038L404.717 101H401.234L404.528 85.394H399.29L399.992 82.1H413.951L413.276 85.394ZM420.657 95.6C420.513 96.284 420.405 96.977 420.333 97.679C420.279 98.381 420.252 99.047 420.252 99.677C420.252 99.929 420.252 100.172 420.252 100.406C420.27 100.622 420.288 100.829 420.306 101.027H417.849L417.471 98.705H417.363C417.165 99.029 416.904 99.353 416.58 99.677C416.274 99.983 415.932 100.271 415.554 100.541C415.176 100.793 414.771 100.991 414.339 101.135C413.925 101.297 413.493 101.378 413.043 101.378C411.855 101.378 410.973 100.991 410.397 100.217C409.839 99.443 409.56 98.408 409.56 97.112C409.56 95.798 409.722 94.538 410.046 93.332C410.388 92.126 410.91 91.064 411.612 90.146C412.314 89.228 413.196 88.499 414.258 87.959C415.338 87.401 416.616 87.122 418.092 87.122C418.722 87.122 419.406 87.185 420.144 87.311C420.9 87.419 421.629 87.572 422.331 87.77L420.657 95.6ZM414.312 98.597C414.636 98.597 414.942 98.534 415.23 98.408C415.518 98.264 415.779 98.084 416.013 97.868C416.265 97.652 416.481 97.418 416.661 97.166C416.859 96.914 417.03 96.68 417.174 96.464L418.524 90.173C418.326 90.083 418.092 90.02 417.822 89.984C417.57 89.93 417.318 89.903 417.066 89.903C416.418 89.903 415.842 90.101 415.338 90.497C414.834 90.875 414.402 91.379 414.042 92.009C413.7 92.621 413.439 93.323 413.259 94.115C413.079 94.889 412.989 95.672 412.989 96.464C412.989 97.04 413.079 97.544 413.259 97.976C413.457 98.39 413.808 98.597 414.312 98.597ZM425.839 87.5H429.16L426.298 101H422.977L425.839 87.5ZM426.352 83.666C426.352 83.072 426.541 82.613 426.919 82.289C427.315 81.965 427.81 81.803 428.404 81.803C428.98 81.803 429.466 81.965 429.862 82.289C430.276 82.613 430.483 83.072 430.483 83.666C430.483 84.242 430.276 84.701 429.862 85.043C429.466 85.367 428.98 85.529 428.404 85.529C427.81 85.529 427.315 85.367 426.919 85.043C426.541 84.701 426.352 84.242 426.352 83.666ZM433.692 97.004C433.584 97.526 433.584 97.913 433.692 98.165C433.818 98.417 434.016 98.543 434.286 98.543C434.79 98.543 435.267 98.444 435.717 98.246L435.636 100.649C435.312 100.847 434.844 101.009 434.232 101.135C433.62 101.261 433.017 101.324 432.423 101.324C431.649 101.324 431.055 101.18 430.641 100.892C430.245 100.586 430.047 100.028 430.047 99.218C430.047 98.804 430.101 98.327 430.209 97.787L433.53 82.1H436.851L433.692 97.004ZM448.528 87.5L449.392 94.412L449.365 96.653H449.5L450.31 94.385L453.442 87.5H456.682L449.797 101.135H447.34L446.395 93.575V91.874H446.287L445.585 93.602L441.535 101.135H438.997L437.755 87.5H441.157L441.589 94.277L441.427 96.68H441.562L442.48 94.25L446.044 87.5H448.528ZM458.403 87.5H461.724L458.862 101H455.541L458.403 87.5ZM458.916 83.666C458.916 83.072 459.105 82.613 459.483 82.289C459.879 81.965 460.374 81.803 460.968 81.803C461.544 81.803 462.03 81.965 462.426 82.289C462.84 82.613 463.047 83.072 463.047 83.666C463.047 84.242 462.84 84.701 462.426 85.043C462.03 85.367 461.544 85.529 460.968 85.529C460.374 85.529 459.879 85.367 459.483 85.043C459.105 84.701 458.916 84.242 458.916 83.666ZM469.793 101L471.575 92.63C471.683 92.126 471.737 91.685 471.737 91.307C471.737 90.911 471.656 90.605 471.494 90.389C471.332 90.155 471.035 90.038 470.603 90.038C470.279 90.038 469.955 90.119 469.631 90.281C469.307 90.443 469.001 90.659 468.713 90.929C468.425 91.199 468.155 91.505 467.903 91.847C467.651 92.171 467.435 92.504 467.255 92.846L465.527 101H462.206L465.068 87.5H467.579L467.444 89.876H467.552C467.786 89.588 468.056 89.282 468.362 88.958C468.686 88.634 469.055 88.337 469.469 88.067C469.883 87.797 470.342 87.572 470.846 87.392C471.368 87.212 471.953 87.122 472.601 87.122C473.411 87.122 474.059 87.347 474.545 87.797C475.031 88.229 475.274 88.958 475.274 89.984C475.274 90.254 475.256 90.542 475.22 90.848C475.202 91.154 475.148 91.487 475.058 91.847L473.114 101H469.793ZM487.734 96.248C487.572 97.004 487.455 97.706 487.383 98.354C487.311 99.002 487.275 99.614 487.275 100.19C487.275 100.334 487.275 100.478 487.275 100.622C487.275 100.748 487.284 100.883 487.302 101.027H485.034L484.656 98.705H484.548C484.35 99.029 484.089 99.353 483.765 99.677C483.459 99.983 483.117 100.271 482.739 100.541C482.361 100.793 481.956 100.991 481.524 101.135C481.11 101.297 480.696 101.378 480.282 101.378C479.166 101.378 478.302 100.982 477.69 100.19C477.096 99.398 476.799 98.309 476.799 96.923C476.799 95.663 476.97 94.448 477.312 93.278C477.654 92.108 478.131 91.073 478.743 90.173C479.373 89.255 480.129 88.526 481.011 87.986C481.911 87.446 482.901 87.176 483.981 87.176C484.503 87.176 484.935 87.212 485.277 87.284C485.619 87.338 485.943 87.437 486.249 87.581L487.41 82.1H490.731L487.734 96.248ZM485.655 90.362C485.439 90.218 485.187 90.119 484.899 90.065C484.629 89.993 484.26 89.957 483.792 89.957C483.252 89.957 482.757 90.146 482.307 90.524C481.875 90.884 481.506 91.379 481.2 92.009C480.894 92.621 480.651 93.332 480.471 94.142C480.309 94.952 480.228 95.798 480.228 96.68C480.228 97.202 480.345 97.652 480.579 98.03C480.813 98.408 481.146 98.597 481.578 98.597C481.848 98.597 482.118 98.534 482.388 98.408C482.676 98.264 482.937 98.084 483.171 97.868C483.423 97.652 483.648 97.418 483.846 97.166C484.062 96.914 484.233 96.68 484.359 96.464L485.655 90.362ZM509.012 100.217C507.806 100.991 506.33 101.378 504.584 101.378C503.396 101.378 502.361 101.18 501.479 100.784C500.597 100.388 499.859 99.839 499.265 99.137C498.689 98.435 498.257 97.616 497.969 96.68C497.681 95.744 497.537 94.736 497.537 93.656C497.537 91.532 497.834 89.723 498.428 88.229C499.022 86.717 499.805 85.484 500.777 84.53C501.749 83.558 502.856 82.847 504.098 82.397C505.358 81.947 506.645 81.722 507.959 81.722C508.985 81.722 509.858 81.803 510.578 81.965C511.316 82.109 511.892 82.28 512.306 82.478L510.929 85.61C510.569 85.412 510.137 85.268 509.633 85.178C509.129 85.07 508.49 85.016 507.716 85.016C506.798 85.016 505.943 85.205 505.151 85.583C504.359 85.961 503.675 86.501 503.099 87.203C502.523 87.905 502.064 88.76 501.722 89.768C501.398 90.776 501.236 91.919 501.236 93.197C501.236 94.727 501.614 95.924 502.37 96.788C503.144 97.652 504.17 98.084 505.448 98.084C506.258 98.084 506.924 98.003 507.446 97.841C507.986 97.661 508.49 97.445 508.958 97.193L509.012 100.217ZM524.027 85.907C523.685 85.691 523.181 85.475 522.515 85.259C521.849 85.025 521.111 84.908 520.301 84.908C519.887 84.908 519.482 84.953 519.086 85.043C518.69 85.115 518.339 85.241 518.033 85.421C517.727 85.601 517.484 85.835 517.304 86.123C517.124 86.411 517.034 86.753 517.034 87.149C517.034 87.671 517.196 88.112 517.52 88.472C517.844 88.832 518.249 89.174 518.735 89.498C519.239 89.804 519.77 90.119 520.328 90.443C520.904 90.767 521.435 91.145 521.921 91.577C522.425 92.009 522.839 92.531 523.163 93.143C523.487 93.737 523.649 94.475 523.649 95.357C523.649 96.419 523.46 97.337 523.082 98.111C522.722 98.867 522.2 99.488 521.516 99.974C520.85 100.46 520.04 100.811 519.086 101.027C518.15 101.261 517.106 101.378 515.954 101.378C515.324 101.378 514.721 101.342 514.145 101.27C513.587 101.198 513.065 101.108 512.579 101C512.093 100.892 511.661 100.775 511.283 100.649C510.923 100.505 510.635 100.37 510.419 100.244L512.228 97.112C512.408 97.22 512.642 97.337 512.93 97.463C513.218 97.589 513.542 97.706 513.902 97.814C514.28 97.922 514.685 98.012 515.117 98.084C515.549 98.156 515.981 98.192 516.413 98.192C516.917 98.192 517.394 98.156 517.844 98.084C518.294 97.994 518.681 97.859 519.005 97.679C519.347 97.481 519.608 97.238 519.788 96.95C519.986 96.662 520.085 96.302 520.085 95.87C520.085 95.384 519.923 94.97 519.599 94.628C519.275 94.286 518.861 93.962 518.357 93.656C517.871 93.35 517.34 93.035 516.764 92.711C516.206 92.369 515.675 91.973 515.171 91.523C514.685 91.073 514.28 90.533 513.956 89.903C513.632 89.255 513.47 88.472 513.47 87.554C513.47 86.51 513.65 85.619 514.01 84.881C514.388 84.143 514.892 83.54 515.522 83.072C516.152 82.604 516.89 82.262 517.736 82.046C518.582 81.83 519.491 81.722 520.463 81.722C520.985 81.722 521.507 81.749 522.029 81.803C522.551 81.857 523.046 81.938 523.514 82.046C523.982 82.136 524.414 82.253 524.81 82.397C525.206 82.523 525.539 82.667 525.809 82.829L524.027 85.907ZM537.79 85.907C537.448 85.691 536.944 85.475 536.278 85.259C535.612 85.025 534.874 84.908 534.064 84.908C533.65 84.908 533.245 84.953 532.849 85.043C532.453 85.115 532.102 85.241 531.796 85.421C531.49 85.601 531.247 85.835 531.067 86.123C530.887 86.411 530.797 86.753 530.797 87.149C530.797 87.671 530.959 88.112 531.283 88.472C531.607 88.832 532.012 89.174 532.498 89.498C533.002 89.804 533.533 90.119 534.091 90.443C534.667 90.767 535.198 91.145 535.684 91.577C536.188 92.009 536.602 92.531 536.926 93.143C537.25 93.737 537.412 94.475 537.412 95.357C537.412 96.419 537.223 97.337 536.845 98.111C536.485 98.867 535.963 99.488 535.279 99.974C534.613 100.46 533.803 100.811 532.849 101.027C531.913 101.261 530.869 101.378 529.717 101.378C529.087 101.378 528.484 101.342 527.908 101.27C527.35 101.198 526.828 101.108 526.342 101C525.856 100.892 525.424 100.775 525.046 100.649C524.686 100.505 524.398 100.37 524.182 100.244L525.991 97.112C526.171 97.22 526.405 97.337 526.693 97.463C526.981 97.589 527.305 97.706 527.665 97.814C528.043 97.922 528.448 98.012 528.88 98.084C529.312 98.156 529.744 98.192 530.176 98.192C530.68 98.192 531.157 98.156 531.607 98.084C532.057 97.994 532.444 97.859 532.768 97.679C533.11 97.481 533.371 97.238 533.551 96.95C533.749 96.662 533.848 96.302 533.848 95.87C533.848 95.384 533.686 94.97 533.362 94.628C533.038 94.286 532.624 93.962 532.12 93.656C531.634 93.35 531.103 93.035 530.527 92.711C529.969 92.369 529.438 91.973 528.934 91.523C528.448 91.073 528.043 90.533 527.719 89.903C527.395 89.255 527.233 88.472 527.233 87.554C527.233 86.51 527.413 85.619 527.773 84.881C528.151 84.143 528.655 83.54 529.285 83.072C529.915 82.604 530.653 82.262 531.499 82.046C532.345 81.83 533.254 81.722 534.226 81.722C534.748 81.722 535.27 81.749 535.792 81.803C536.314 81.857 536.809 81.938 537.277 82.046C537.745 82.136 538.177 82.253 538.573 82.397C538.969 82.523 539.302 82.667 539.572 82.829L537.79 85.907Z" fill="#374151" fill-opacity="0.7"/>
  <path d="M161.597 47.297L162.468 55.605H162.736L163.674 47.163L171.848 21.1H177.878L185.918 47.297L186.856 55.605H187.124L188.129 47.163L193.824 21.1H203.137L190.206 68.335H184.042L175.667 42.272L174.528 35.103H174.193L173.054 42.339L164.746 68.335H158.247L145.383 21.1H155.366L161.597 47.297ZM210.393 34.5H219.103V68H210.393V34.5ZM209.12 25.053C209.12 23.7577 209.589 22.6633 210.527 21.77C211.51 20.832 212.85 20.363 214.547 20.363C216.244 20.363 217.607 20.832 218.634 21.77C219.706 22.6633 220.242 23.7577 220.242 25.053C220.242 26.3483 219.706 27.4427 218.634 28.336C217.607 29.1847 216.244 29.609 214.547 29.609C212.85 29.609 211.51 29.1847 210.527 28.336C209.589 27.4427 209.12 26.3483 209.12 25.053ZM250.831 68V48.972C250.831 46.2473 250.429 44.282 249.625 43.076C248.866 41.87 247.548 41.267 245.672 41.267C244.02 41.267 242.613 41.7583 241.451 42.741C240.335 43.679 239.531 44.8627 239.039 46.292V68H230.329V34.5H237.23L238.235 38.922H238.503C239.531 37.4927 240.893 36.242 242.59 35.17C244.288 34.098 246.476 33.562 249.156 33.562C250.809 33.562 252.283 33.7853 253.578 34.232C254.874 34.6787 255.968 35.4157 256.861 36.443C257.755 37.4703 258.425 38.8773 258.871 40.664C259.318 42.406 259.541 44.5723 259.541 47.163V68H250.831ZM297.994 56.208C297.994 58.084 298.016 59.96 298.061 61.836C298.106 63.712 298.307 65.789 298.664 68.067H292.433L291.227 63.712H290.959C290.066 65.2753 288.77 66.5483 287.073 67.531C285.42 68.469 283.455 68.938 281.177 68.938C276.978 68.938 273.718 67.5533 271.395 64.784C269.072 62.0147 267.911 57.682 267.911 51.786C267.911 46.0687 269.206 41.6243 271.797 38.453C274.388 35.2817 278.184 33.696 283.187 33.696C284.572 33.696 285.711 33.7853 286.604 33.964C287.497 34.098 288.391 34.3437 289.284 34.701V21.1H297.994V56.208ZM283.187 61.568C284.884 61.568 286.224 61.166 287.207 60.362C288.19 59.5133 288.882 58.3073 289.284 56.744V42.54C288.659 42.0487 287.966 41.6913 287.207 41.468C286.448 41.2 285.465 41.066 284.259 41.066C281.802 41.066 279.949 41.8923 278.698 43.545C277.492 45.1977 276.889 48.034 276.889 52.054C276.889 54.9127 277.38 57.213 278.363 58.955C279.39 60.697 280.998 61.568 283.187 61.568ZM320.51 53.327L321.716 58.553H322.118L322.989 53.26L328.081 34.5H337.059L326.875 64.717C326.026 67.2183 325.2 69.4963 324.396 71.551C323.637 73.6503 322.788 75.4593 321.85 76.978C320.912 78.4967 319.862 79.658 318.701 80.462C317.584 81.3107 316.244 81.735 314.681 81.735C312.358 81.735 310.505 81.3553 309.12 80.596L310.728 73.628C311.398 73.896 312.068 74.03 312.738 74.03C313.765 74.03 314.748 73.5833 315.686 72.69C316.669 71.8413 317.406 70.278 317.897 68L303.894 34.5H314.346L320.51 53.327ZM374.749 32.021C374.749 33.1823 374.593 34.3437 374.28 35.505C374.012 36.6663 373.543 37.7383 372.873 38.721C372.203 39.659 371.332 40.5077 370.26 41.267C369.188 41.9817 367.893 42.5177 366.374 42.875V43.277C367.714 43.5003 368.987 43.88 370.193 44.416C371.399 44.952 372.449 45.689 373.342 46.627C374.236 47.565 374.928 48.704 375.419 50.044C375.955 51.384 376.223 52.9697 376.223 54.801C376.223 57.213 375.71 59.3123 374.682 61.099C373.655 62.841 372.27 64.2703 370.528 65.387C368.831 66.5037 366.888 67.33 364.699 67.866C362.511 68.402 360.255 68.67 357.932 68.67C357.173 68.67 356.19 68.67 354.984 68.67C353.823 68.67 352.55 68.6253 351.165 68.536C349.825 68.4913 348.441 68.402 347.011 68.268C345.627 68.134 344.354 67.933 343.192 67.665V21.435C344.041 21.301 345.001 21.167 346.073 21.033C347.19 20.899 348.374 20.7873 349.624 20.698C350.875 20.6087 352.148 20.5417 353.443 20.497C354.783 20.4523 356.101 20.43 357.396 20.43C359.585 20.43 361.707 20.6087 363.761 20.966C365.861 21.2787 367.714 21.8593 369.322 22.708C370.975 23.5567 372.293 24.7403 373.275 26.259C374.258 27.7777 374.749 29.6983 374.749 32.021ZM357.999 61.099C359.116 61.099 360.188 60.965 361.215 60.697C362.287 60.429 363.225 60.027 364.029 59.491C364.833 58.9103 365.481 58.1957 365.972 57.347C366.464 56.4983 366.709 55.4933 366.709 54.332C366.709 52.858 366.419 51.6967 365.838 50.848C365.258 49.9993 364.498 49.3517 363.56 48.905C362.622 48.4137 361.573 48.101 360.411 47.967C359.25 47.833 358.089 47.766 356.927 47.766H352.036V60.697C352.26 60.7863 352.617 60.8533 353.108 60.898C353.6 60.9427 354.113 60.9873 354.649 61.032C355.23 61.032 355.811 61.0543 356.391 61.099C357.017 61.099 357.553 61.099 357.999 61.099ZM354.984 40.798C355.61 40.798 356.324 40.7757 357.128 40.731C357.977 40.6863 358.669 40.6193 359.205 40.53C360.903 39.994 362.354 39.19 363.56 38.118C364.811 37.046 365.436 35.639 365.436 33.897C365.436 32.7357 365.213 31.7753 364.766 31.016C364.32 30.2567 363.717 29.6537 362.957 29.207C362.243 28.7603 361.416 28.4477 360.478 28.269C359.54 28.0903 358.558 28.001 357.53 28.001C356.369 28.001 355.297 28.0233 354.314 28.068C353.332 28.1127 352.572 28.1797 352.036 28.269V40.798H354.984ZM394.234 56.744C394.234 58.3073 394.435 59.4463 394.837 60.161C395.239 60.8757 395.887 61.233 396.78 61.233C397.316 61.233 397.83 61.1883 398.321 61.099C398.857 61.0097 399.505 60.8087 400.264 60.496L401.202 67.33C400.488 67.6873 399.393 68.0447 397.919 68.402C396.445 68.7593 394.927 68.938 393.363 68.938C390.817 68.938 388.874 68.3573 387.534 67.196C386.194 65.99 385.524 64.0247 385.524 61.3V21.1H394.234V56.744ZM406.023 51.25C406.023 45.5773 407.407 41.2223 410.177 38.185C412.946 35.103 416.832 33.562 421.835 33.562C424.515 33.562 426.837 33.9863 428.803 34.835C430.768 35.6837 432.398 36.8897 433.694 38.453C434.989 39.9717 435.949 41.8253 436.575 44.014C437.245 46.2027 437.58 48.6147 437.58 51.25C437.58 56.9227 436.195 61.3 433.426 64.382C430.701 67.4193 426.837 68.938 421.835 68.938C419.155 68.938 416.832 68.5137 414.867 67.665C412.901 66.8163 411.249 65.6327 409.909 64.114C408.613 62.5507 407.631 60.6747 406.961 58.486C406.335 56.2973 406.023 53.8853 406.023 51.25ZM415.001 51.25C415.001 52.724 415.135 54.0863 415.403 55.337C415.671 56.5877 416.073 57.682 416.609 58.62C417.145 59.558 417.837 60.295 418.686 60.831C419.579 61.3223 420.629 61.568 421.835 61.568C424.113 61.568 425.81 60.7417 426.927 59.089C428.043 57.4363 428.602 54.8233 428.602 51.25C428.602 48.168 428.088 45.689 427.061 43.813C426.033 41.8923 424.291 40.932 421.835 40.932C419.691 40.932 418.016 41.736 416.81 43.344C415.604 44.952 415.001 47.5873 415.001 51.25ZM470.015 65.923C468.675 66.9057 467.045 67.6427 465.124 68.134C463.248 68.67 461.305 68.938 459.295 68.938C456.615 68.938 454.337 68.5137 452.461 67.665C450.63 66.8163 449.133 65.6327 447.972 64.114C446.811 62.5507 445.962 60.6747 445.426 58.486C444.935 56.2973 444.689 53.8853 444.689 51.25C444.689 45.5773 445.962 41.2223 448.508 38.185C451.054 35.103 454.761 33.562 459.63 33.562C462.087 33.562 464.052 33.763 465.526 34.165C467.045 34.567 468.407 35.0807 469.613 35.706L467.536 42.808C466.509 42.3167 465.481 41.937 464.454 41.669C463.471 41.401 462.332 41.267 461.037 41.267C458.625 41.267 456.794 42.071 455.543 43.679C454.292 45.2423 453.667 47.766 453.667 51.25C453.667 52.6793 453.823 53.997 454.136 55.203C454.449 56.409 454.918 57.4587 455.543 58.352C456.168 59.2453 456.972 59.96 457.955 60.496C458.982 60.9873 460.166 61.233 461.506 61.233C462.98 61.233 464.231 61.0543 465.258 60.697C466.285 60.295 467.201 59.826 468.005 59.29L470.015 65.923ZM489.017 54.131H486.672V68H477.962V21.1H486.672V48.771L488.682 47.833L496.32 34.5H505.901L497.861 47.23L494.444 49.776L498.129 52.389L507.174 68H497.191L489.017 54.131ZM527.422 58.754C527.422 57.8607 527.043 57.146 526.283 56.61C525.524 56.074 524.586 55.5827 523.469 55.136C522.353 54.6893 521.124 54.2427 519.784 53.796C518.444 53.3047 517.216 52.657 516.099 51.853C514.983 51.0043 514.045 49.9547 513.285 48.704C512.526 47.4087 512.146 45.756 512.146 43.746C512.146 40.4407 513.129 37.917 515.094 36.175C517.06 34.433 519.896 33.562 523.603 33.562C526.149 33.562 528.45 33.83 530.504 34.366C532.559 34.902 534.167 35.505 535.328 36.175L533.385 42.473C532.358 42.071 531.063 41.6467 529.499 41.2C527.936 40.7533 526.35 40.53 524.742 40.53C522.152 40.53 520.856 41.535 520.856 43.545C520.856 44.349 521.236 44.9967 521.995 45.488C522.755 45.9793 523.693 46.4483 524.809 46.895C525.926 47.297 527.154 47.7437 528.494 48.235C529.834 48.7263 531.063 49.374 532.179 50.178C533.296 50.9373 534.234 51.9423 534.993 53.193C535.753 54.4437 536.132 56.0517 536.132 58.017C536.132 61.4117 535.038 64.0917 532.849 66.057C530.705 67.9777 527.467 68.938 523.134 68.938C520.767 68.938 518.534 68.6253 516.434 68C514.38 67.4193 512.705 66.727 511.409 65.923L513.821 59.424C514.849 60.0047 516.211 60.5853 517.908 61.166C519.606 61.702 521.348 61.97 523.134 61.97C524.43 61.97 525.457 61.7243 526.216 61.233C527.02 60.7417 527.422 59.9153 527.422 58.754Z" fill="#374151"/>
  <defs>
  <linearGradient id="paint0_linear" x1="66.5" y1="27" x2="66.5" y2="97" gradientUnits="userSpaceOnUse">
  <stop stop-color="white"/>
  <stop offset="1" stop-color="white" stop-opacity="0.62"/>
  </linearGradient>
  </defs>
</svg>