<svg width="1660" height="800" viewBox="0 0 1660 800" fill="none" xmlns="http://www.w3.org/2000/svg">
<rect width="1660" height="800" fill="#4B5563"/>
<rect width="1660" height="800" fill="#4B5563"/>
<path fill-rule="evenodd" clip-rule="evenodd" d="M793.3 357C790.038 357 786.909 358.296 784.603 360.603C782.296 362.909 781 366.038 781 369.3V430.8C781 434.062 782.296 437.191 784.603 439.497C786.909 441.804 790.038 443.1 793.3 443.1H867.1C870.362 443.1 873.491 441.804 875.797 439.497C878.104 437.191 879.4 434.062 879.4 430.8V369.3C879.4 366.038 878.104 362.909 875.797 360.603C873.491 358.296 870.362 357 867.1 357H793.3ZM867.1 430.8H793.3L817.9 381.6L836.35 418.5L848.65 393.9L867.1 430.8Z" fill="#F9FAFB"/>
</svg>
