<svg  viewBox="0 0 1660 1100" fill="none" xmlns="http://www.w3.org/2000/svg">
<rect width="1660" height="1100" fill="#4B5563"/>
<rect width="1660" height="1100" fill="#4B5563"/>
<path fill-rule="evenodd" clip-rule="evenodd" d="M879 550C879 562.996 873.838 575.459 864.648 584.648C855.459 593.838 842.996 599 830 599C817.004 599 804.541 593.838 795.352 584.648C786.162 575.459 781 562.996 781 550C781 537.004 786.162 524.541 795.352 515.352C804.541 506.162 817.004 501 830 501C842.996 501 855.459 506.162 864.648 515.352C873.838 524.541 879 537.004 879 550V550ZM842.25 531.625C842.25 534.874 840.959 537.99 838.662 540.287C836.365 542.584 833.249 543.875 830 543.875C826.751 543.875 823.635 542.584 821.338 540.287C819.041 537.99 817.75 534.874 817.75 531.625C817.75 528.376 819.041 525.26 821.338 522.963C823.635 520.666 826.751 519.375 830 519.375C833.249 519.375 836.365 520.666 838.662 522.963C840.959 525.26 842.25 528.376 842.25 531.625V531.625ZM830 556.125C824.136 556.124 818.395 557.806 813.459 560.972C808.523 564.138 804.6 568.655 802.156 573.986C805.602 577.995 809.875 581.212 814.681 583.415C819.487 585.618 824.713 586.756 830 586.75C835.287 586.756 840.513 585.618 845.319 583.415C850.125 581.212 854.398 577.995 857.844 573.986C855.4 568.655 851.477 564.138 846.541 560.972C841.605 557.806 835.864 556.124 830 556.125V556.125Z" fill="#F9FAFB"/>
</svg>
