<svg width="256" height="256" viewBox="0 0 256 256" fill="none" xmlns="http://www.w3.org/2000/svg">
<rect width="256" height="256" fill="#4B5563"/>
<path fill-rule="evenodd" clip-rule="evenodd" d="M160 128C160 136.487 156.629 144.626 150.627 150.627C144.626 156.629 136.487 160 128 160C119.513 160 111.374 156.629 105.373 150.627C99.3714 144.626 96 136.487 96 128C96 119.513 99.3714 111.374 105.373 105.373C111.374 99.3714 119.513 96 128 96C136.487 96 144.626 99.3714 150.627 105.373C156.629 111.374 160 119.513 160 128V128ZM136 116C136 118.122 135.157 120.157 133.657 121.657C132.157 123.157 130.122 124 128 124C125.878 124 123.843 123.157 122.343 121.657C120.843 120.157 120 118.122 120 116C120 113.878 120.843 111.843 122.343 110.343C123.843 108.843 125.878 108 128 108C130.122 108 132.157 108.843 133.657 110.343C135.157 111.843 136 113.878 136 116V116ZM128 132C124.17 131.999 120.421 133.098 117.198 135.166C113.974 137.233 111.412 140.183 109.816 143.664C112.067 146.282 114.857 148.383 117.996 149.822C121.134 151.261 124.547 152.004 128 152C131.453 152.004 134.866 151.261 138.004 149.822C141.143 148.383 143.933 146.282 146.184 143.664C144.588 140.183 142.026 137.233 138.802 135.166C135.579 133.098 131.83 131.999 128 132V132Z" fill="#F9FAFB"/>
</svg>
