<svg viewBox="0 0 437 93" fill="none" xmlns="http://www.w3.org/2000/svg">
<path d="M90.7831 22.3501L67.133 75.7891H52.5723L76.2224 22.3501H90.7831Z" fill="#374151"/>
<path d="M113.121 22.3501L89.4705 75.7891H74.9097L98.5599 22.3501H113.121Z" fill="#374151"/>
<path d="M38.2109 22.3501L14.5607 75.7891H0L23.6501 22.3501H38.2109Z" fill="#374151"/>
<path d="M60.5483 22.3501L36.8982 75.7891H22.3375L45.9876 22.3501H60.5483Z" fill="#374151"/>
<path d="M46.7579 22.3501L70.408 75.7891H84.9688L61.3186 22.3501H46.7579Z" fill="#4B5563"/>
<path d="M24.4204 22.3501L48.0705 75.7891H62.6313L38.9811 22.3501H24.4204Z" fill="#4B5563"/>
<path d="M193.709 29.592L182.233 72H167.869L161.181 44.488L154.265 72H139.977L128.425 29.592H141.421L147.425 59.916L154.569 29.592H168.325L175.545 59.764L181.473 29.592H193.709ZM204.441 25.184C202.161 25.184 200.286 24.5253 198.817 23.208C197.398 21.84 196.689 20.168 196.689 18.192C196.689 16.1653 197.398 14.4933 198.817 13.176C200.286 11.808 202.161 11.124 204.441 11.124C206.67 11.124 208.494 11.808 209.913 13.176C211.382 14.4933 212.117 16.1653 212.117 18.192C212.117 20.168 211.382 21.84 209.913 23.208C208.494 24.5253 206.67 25.184 204.441 25.184ZM210.901 29.592V72H197.905V29.592H210.901ZM245.399 29.136C250.365 29.136 254.317 30.7573 257.255 34C260.245 37.192 261.739 41.6 261.739 47.224V72H248.819V48.972C248.819 46.1347 248.085 43.9307 246.615 42.36C245.146 40.7893 243.17 40.004 240.687 40.004C238.205 40.004 236.229 40.7893 234.759 42.36C233.29 43.9307 232.555 46.1347 232.555 48.972V72H219.559V29.592H232.555V35.216C233.873 33.3413 235.646 31.872 237.875 30.808C240.105 29.6933 242.613 29.136 245.399 29.136ZM267.426 50.72C267.426 46.3627 268.237 42.5373 269.858 39.244C271.53 35.9507 273.785 33.4173 276.622 31.644C279.459 29.8707 282.626 28.984 286.122 28.984C288.909 28.984 291.442 29.5667 293.722 30.732C296.053 31.8973 297.877 33.468 299.194 35.444V15.76H312.19V72H299.194V65.92C297.978 67.9467 296.23 69.568 293.95 70.784C291.721 72 289.111 72.608 286.122 72.608C282.626 72.608 279.459 71.7213 276.622 69.948C273.785 68.124 271.53 65.5653 269.858 62.272C268.237 58.928 267.426 55.0773 267.426 50.72ZM299.194 50.796C299.194 47.5533 298.282 44.9947 296.458 43.12C294.685 41.2453 292.506 40.308 289.922 40.308C287.338 40.308 285.134 41.2453 283.31 43.12C281.537 44.944 280.65 47.4773 280.65 50.72C280.65 53.9627 281.537 56.5467 283.31 58.472C285.134 60.3467 287.338 61.284 289.922 61.284C292.506 61.284 294.685 60.3467 296.458 58.472C298.282 56.5973 299.194 54.0387 299.194 50.796Z" fill="#374151"/>
<path d="M332.004 15.76V72H321.364V15.76H332.004ZM360.452 72.684C356.399 72.684 352.751 71.7973 349.508 70.024C346.266 68.2 343.707 65.6413 341.832 62.348C340.008 59.0547 339.096 55.2547 339.096 50.948C339.096 46.6413 340.034 42.8413 341.908 39.548C343.834 36.2547 346.443 33.7213 349.736 31.948C353.03 30.124 356.703 29.212 360.756 29.212C364.81 29.212 368.483 30.124 371.776 31.948C375.07 33.7213 377.654 36.2547 379.529 39.548C381.454 42.8413 382.416 46.6413 382.416 50.948C382.416 55.2547 381.428 59.0547 379.452 62.348C377.527 65.6413 374.892 68.2 371.548 70.024C368.255 71.7973 364.556 72.684 360.452 72.684ZM360.452 63.412C362.378 63.412 364.176 62.956 365.848 62.044C367.571 61.0813 368.939 59.6627 369.952 57.788C370.966 55.9133 371.472 53.6333 371.472 50.948C371.472 46.9453 370.408 43.88 368.28 41.752C366.203 39.5733 363.644 38.484 360.604 38.484C357.564 38.484 355.006 39.5733 352.928 41.752C350.902 43.88 349.888 46.9453 349.888 50.948C349.888 54.9507 350.876 58.0413 352.852 60.22C354.879 62.348 357.412 63.412 360.452 63.412ZM405.953 29.212C409.095 29.212 411.856 29.8453 414.237 31.112C416.619 32.328 418.493 33.924 419.861 35.9V29.896H430.577V72.304C430.577 76.2053 429.792 79.676 428.221 82.716C426.651 85.8067 424.295 88.2387 421.153 90.012C418.012 91.836 414.212 92.748 409.753 92.748C403.775 92.748 398.86 91.3547 395.009 88.568C391.209 85.7813 389.056 81.9813 388.549 77.168H399.113C399.671 79.0933 400.861 80.6133 402.685 81.728C404.56 82.8933 406.815 83.476 409.449 83.476C412.54 83.476 415.048 82.5387 416.973 80.664C418.899 78.84 419.861 76.0533 419.861 72.304V65.768C418.493 67.744 416.593 69.3907 414.161 70.708C411.78 72.0253 409.044 72.684 405.953 72.684C402.407 72.684 399.164 71.772 396.225 69.948C393.287 68.124 390.956 65.5653 389.233 62.272C387.561 58.928 386.725 55.1027 386.725 50.796C386.725 46.54 387.561 42.7653 389.233 39.472C390.956 36.1787 393.261 33.6453 396.149 31.872C399.088 30.0987 402.356 29.212 405.953 29.212ZM419.861 50.948C419.861 48.364 419.355 46.16 418.341 44.336C417.328 42.4613 415.96 41.0427 414.237 40.08C412.515 39.0667 410.665 38.56 408.689 38.56C406.713 38.56 404.889 39.0413 403.217 40.004C401.545 40.9667 400.177 42.3853 399.113 44.26C398.1 46.084 397.593 48.2627 397.593 50.796C397.593 53.3293 398.1 55.5587 399.113 57.484C400.177 59.3587 401.545 60.8027 403.217 61.816C404.94 62.8293 406.764 63.336 408.689 63.336C410.665 63.336 412.515 62.8547 414.237 61.892C415.96 60.8787 417.328 59.46 418.341 57.636C419.355 55.7613 419.861 53.532 419.861 50.948Z" fill="#4B5563"/>
</svg>
